<?xml version="1.0" encoding="UTF-8"?>
<svg id="Layer_1" data-name="Layer 1" xmlns="http://www.w3.org/2000/svg" viewBox="0 0 184.1 184.09">
  <path d="M29.96,35.26l124.24-.06c6.65.71,12.29,6.32,12.83,13.03.08.99-.05,2.06,0,3.06,1.24,26.75-.55,54.17.19,81,.34,8.58-5.11,16-13.92,16.79H30.8c-7.5-.63-12.98-6.51-13.56-13.92V48.77c.7-6.8,5.98-12.45,12.72-13.51ZM30.31,39.38c-4.66.84-8.24,4.51-8.93,9.2v86.75c.48,4.88,4.35,9.01,9.24,9.61h122.86c5-.55,8.92-4.62,9.43-9.61V48.76c-.53-4.95-4.31-8.83-9.25-9.43l-123.35.05h0Z"/>
  <path d="M143.1,71.61c-.64.64-1.94.59-2.33-.35-.52-1.26-.69-4.46-1.09-6.09-1.15-4.72-2.99-8.91-8.65-8.4-2.78.25-4.71,1.79-6.24,4-6.19,8.92-5.84,29.27-4.24,39.7.9,5.89,4.03,17.67,11.38,18.08,1.3.07,4.62-.48,5.25-1.75.39-.79.03-1.05.03-1.75v-21.72c-.58-3.17-3.18-2.98-5.46-3.71-2.02-.65-1.32-2.92.7-2.87,5.89.31,12.09-.33,17.94-.1.9.04,2.16.37,2.28,1.47.15,1.47-1.43,1.38-2.36,1.93-3.19,1.89-2.67,6.11-2.66,9.18.03,8.61.1,17.22.13,25.83-2.41,2.99-5.54-2.24-7.44-3.63-4.9,3.67-9.17,5.48-15.29,3.45-10.28-3.4-14.27-13.86-15.79-23.72-2.16-13.91-.4-29.74,8.75-40.89,7.65-9.32,16.28-9.81,27.51-7.41.73.16,1.78.18,2.04,1.02s-1.11,3.09-1.49,4.09c-.97,2.54-1.5,5.23-1.97,7.91-.19,1.1-.45,5.17-1,5.73h0Z"/>
  <path d="M71.17,51.77c.57-.57,3.17-.05,3.99-.04,9.57.19,19.17-.06,28.75-.36.76-.02,3.42-.27,3.64.48.35,1.2-.73,4.85-.98,6.31-.55,3.17-.87,6.68-1.54,9.77-.15.71-.4,2-1.2,2.22-.55.15-1.26-.39-1.48-.87-.46-1.01-.56-3.52-.91-4.84-.53-2.04-1.46-4.3-3.1-5.7-2.82-2.42-7.38-2.23-10.87-2.08l-.14.22-.31,27.38c.19.28,3.54.2,4.14.17,2.28-.12,5.17-.44,6.83-2.15,1.11-1.14,2.03-5,3.94-3.06.09,3.34.2,6.79.1,10.15-.01.42-.18.82-.19,1.24-.04.91.2,3.42-.09,4.05-.16.35-.84.75-1.24.72-1.16-.08-2.18-3.07-2.98-4.03-2.34-2.8-6.98-1.32-10.14-1.53l-.42.29c-.09,1.43.03,2.87-.02,4.29-.23,6.43-.37,12.97,0,19.39.14,2.45-.03,5.11,1.62,7.18,1.25,1.56,2.17,1.04,3.54,1.66,1,.45,1.02,2.03.06,2.48-5.42.08-10.85-.26-16.27-.11-1.35.04-5.34,1.23-4.85-1.08.32-1.53,1.28-1.25,2.25-1.88,2.22-1.44,2.59-5.66,2.71-8.07.25-4.91-.07-10.14,0-15.1.12-11.72.88-24.26.37-35.92-.11-2.6-.24-6.75-2.79-8.17-1.26-.71-3.23-.82-2.39-3h-.02Z"/>
  <path d="M51.19,119.44h4.94c4.77,0,7.26-4.25,9.04-8.02,1.27-2.69,2.27-5.63,3.42-8.38.53-.42,1.31-.58,1.82-.04.95.99-.06,3.15-.31,4.38-1.14,5.6-1.98,11.26-2.43,16.97-.06.28-.44.82-.68.93-.85.38-4.3-.23-5.47-.27-8.61-.32-17.25.21-25.88.2-1.08-.15-1.1-1.11-.65-1.93.6-1.12,1.94-.87,2.97-1.52,2.02-1.28,2.52-4.68,2.64-6.88.96-17.68-.84-36.13-.19-53.89-.24-2.05-.64-4.51-2.42-5.84-1.22-.91-3.9-1.14-2.66-3.43.46-.29,3.02-.19,3.75-.17,3.87.09,7.77.27,11.68.2,1.36-.03,6.06-1.09,5.21,1.62-.32,1.02-2.81,1.19-3.77,2.88-1.66,2.93-.94,13.29-.99,17.15,0,.47-.19.91-.2,1.42-.17,14.88.07,29.79.19,44.64v-.02Z"/>
</svg>